<?xml version="1.0" standalone="no"?>
<!DOCTYPE svg PUBLIC "-//W3C//DTD SVG 20010904//EN"
 "http://www.w3.org/TR/2001/REC-SVG-20010904/DTD/svg10.dtd">
<svg version="1.0" xmlns="http://www.w3.org/2000/svg"
 width="512.000000pt" height="512.000000pt" viewBox="0 0 512.000000 512.000000"
 preserveAspectRatio="xMidYMid meet">
<metadata>
Created by potrace 1.14, written by Peter Selinger 2001-2017
</metadata>
<g transform="translate(0.000000,512.000000) scale(0.100000,-0.100000)"
fill="#000000" stroke="none">
<path d="M863 5110 c-34 -14 -47 -42 -117 -250 -37 -107 -70 -197 -74 -201 -4
-4 -98 -37 -210 -74 -111 -38 -212 -76 -223 -86 -45 -39 -39 -119 13 -153 13
-8 88 -36 168 -62 80 -26 149 -50 153 -54 5 -4 -21 -48 -58 -99 -89 -124 -145
-217 -210 -352 -106 -221 -200 -517 -231 -729 -3 -19 -7 -42 -9 -50 -2 -8 -7
-46 -11 -85 -3 -38 -8 -79 -11 -90 -12 -48 -10 -436 3 -540 40 -323 118 -582
263 -868 59 -119 211 -361 258 -412 10 -11 31 -38 48 -60 76 -102 259 -283
400 -395 386 -307 833 -488 1332 -540 78 -8 441 -6 478 3 11 3 43 8 70 11 525
67 1055 335 1455 736 137 137 153 155 251 285 277 370 438 760 500 1215 14 98
19 435 8 525 -17 144 -21 170 -44 279 -19 90 -44 184 -79 291 -45 142 -167
395 -258 538 -48 75 -154 225 -167 237 -3 3 -24 28 -46 55 -117 148 -371 376
-560 502 -281 188 -629 333 -930 388 -183 33 -253 39 -460 39 -163 0 -338 -9
-355 -19 -3 -2 -30 -6 -60 -10 -30 -3 -62 -8 -70 -10 -8 -2 -31 -7 -50 -10
-66 -11 -265 -64 -350 -93 -160 -55 -331 -133 -468 -213 -45 -27 -86 -49 -90
-49 -4 0 -31 73 -61 163 -65 196 -73 212 -111 232 -32 17 -54 18 -87 5z m1770
-2490 c29 -33 33 -51 17 -97 -21 -58 -105 -78 -154 -36 -32 28 -41 63 -27 105
24 72 111 87 164 28z"/>
<path d="M4768 783 c-36 -23 -48 -53 -48 -123 l0 -60 -54 0 c-97 0 -144 -35
-142 -105 2 -64 49 -95 142 -95 l54 0 0 -55 c0 -30 0 -57 0 -60 -1 -13 35 -65
49 -71 58 -23 118 -4 140 43 6 13 11 51 11 83 l0 60 61 0 c40 0 71 6 90 17 63
38 58 142 -8 172 -13 6 -51 11 -83 11 l-60 0 0 60 c0 32 -5 70 -11 83 -22 48
-95 69 -141 40z"/>
<path d="M248 583 c-36 -23 -48 -53 -48 -123 l0 -60 -54 0 c-29 0 -66 -5 -83
-10 -56 -20 -78 -96 -42 -148 21 -29 60 -42 125 -42 l54 0 0 -57 c0 -109 60
-165 141 -132 21 8 61 57 59 74 0 3 0 30 0 60 l0 55 61 0 c112 0 161 59 125
151 -6 13 -67 56 -73 51 -2 -1 -28 -2 -58 -2 l-55 0 0 61 c0 77 -21 116 -70
129 -46 13 -50 12 -82 -7z"/>
</g>
</svg>
